<?xml version="1.0" encoding="utf-8"?>
<svg data-name="Layer 1" id="Layer_1" viewBox="0 0 85.55 85.16" xmlns="http://www.w3.org/2000/svg">
<defs>

</defs>
<path class="cls-1" d="m36.72,53.8c-1.36,0-2.72,0-4.08,0s-2.73,0-4.09,0c-.44,0-.61.19-.55.62.13.93.28,1.87.42,2.8.22,1.44.43,2.88.65,4.32.23,1.55.46,3.11.7,4.66.06.41.29.6.69.6,1.46,0,2.91,0,4.37,0,.38,0,.63-.21.69-.59.22-1.49.45-2.97.67-4.46.36-2.44.73-4.88,1.09-7.32.07-.44-.1-.63-.55-.63Z" fill="currentColor"/>
<path class="cls-1" d="m32.75,32.91c1.76,0,3.16-1.38,3.16-3.11,0-1.72-1.39-3.11-3.12-3.12-1.73,0-3.11,1.38-3.11,3.11,0,1.72,1.38,3.12,3.07,3.12Z" fill="currentColor"/>
<path class="cls-1" d="m44.57,50.98c-.07-.14-.15-.27-.25-.39-1.02-1.18-2.04-2.37-3.06-3.55-.21-.24-.46-.42-.76-.55-.39-.16-.79-.22-1.21-.22-8.58,0-17.16,0-25.73,0h0s-1.54,0-1.54,0c-.02,0-.03,0-.05,0,0,0,0,0,0,0h-.23v6.02h1.82c2.33,0,4.65-.01,6.98-.02,7.69,0,15.38,0,23.06,0,.06,0,.12,0,.19,0,.72-.03,1.09-.65.78-1.3Z" fill="currentColor"/>
<path class="cls-1" d="m59.95,26.98c-.14-.27-.39-.36-.67-.22-.15.07-.27.17-.37.3-.07.09-.13.1-.23.05-2.14-1.01-4.28-2.01-6.43-3.01-.09-.04-.13-.1-.16-.19-.07-.21-.18-.41-.33-.57-.07-.07-.08-.14-.08-.23,0-1.84,0-3.68,0-5.52v-1.29h-2.5v1.92h0c0,1.61,0,3.21,0,4.82,0,.15-.03.27-.14.38-.12.12-.2.27-.25.43-.04.14-.12.21-.25.27-2.04.95-4.09,1.91-6.12,2.87-.25.12-.41.17-.65-.07-.41-.42-.88-.24-.97.34-.12.79.12,1.49.66,2.08.29.32.52.34.92.16.04-.02.09-.04.13-.06,2.32-1.09,4.64-2.17,6.96-3.27.11-.05.21-.06.33-.01.39.16.8.17,1.19.02.17-.06.3-.05.45.02,2.35,1.1,4.69,2.2,7.04,3.3.36.17.59.13.87-.15.38-.38.58-.85.67-1.37.06-.34.07-.68-.09-1Z" fill="currentColor"/>
<path class="cls-1" d="m44.14,40.52l-5.1-5.71c-.28-.31-.65-.48-1.04-.49h0s-10.07,0-10.07,0v.02c-.35,0-.7.11-.98.36l-5.71,5.1c-.61.55-.67,1.49-.12,2.11.55.61,1.49.67,2.11.12l4.7-4.2v5.4c0,.69.56,1.24,1.24,1.24h7.33c.69,0,1.24-.56,1.24-1.24v-5.37l4.17,4.66c.55.61,1.49.67,2.11.12.61-.55.67-1.49.12-2.11Z" fill="currentColor"/>
<g>
<path class="cls-1" d="m71.64,55.66c-.08-.47-.13-.94-.22-1.41-.37-1.79-1.21-3.44-2.45-4.78-.62-.7-1.68-.76-2.38-.15-.7.62-.76,1.68-.15,2.38.87.96,1.45,2.14,1.7,3.41.72,3.79-1.76,7.44-5.55,8.16-3.19.61-6.37-1.06-7.69-4.03-.22-.61-.76-1.05-1.4-1.14-.92-.13-1.77.52-1.89,1.43-.04.27,0,.54.08.79.32.84.76,1.62,1.31,2.33,1.39,1.88,3.38,3.22,5.65,3.81.56.14,1.14.2,1.7.3l.21.04h1.43c.05,0,.11-.03.16-.04.47-.05.94-.13,1.41-.23,4.19-1.1,6.8-3.77,7.84-7.98.11-.45.15-.93.22-1.39v-1.51Z" fill="currentColor"/>
<path class="cls-1" d="m42.8,61.32c0-.94.76-1.71,1.71-1.71.24,0,.47.05.67.14.15.05.29.1.44.16l.1-.21c.49-1.15.99-2.29,1.48-3.43.67-1.57,1.34-3.13,2.03-4.69.24-.64.86-1.05,1.55-1.03,1.84-.02,3.69-.03,5.53-.04l4.91-.05c.07,0,.19-.03.2-.07.06-.3.1-.6.15-.92h-7.28c-.13,0-.26,0-.38,0-.93-.07-1.62-.87-1.55-1.8.02-.27.11-.54.25-.77.35-.54.97-.85,1.61-.8h7.62s.27,0,.27,0c.2-1.23.38-2.43.59-3.64,0-.83.77-1.5,1.71-1.5s1.71.67,1.71,1.5c-.21,1.31-.42,2.63-.63,3.94-.32,1.95-.65,3.89-.94,5.84-.09.95-.92,1.67-1.87,1.63-3.51,0-7.03.04-10.54.06-.16-.02-.3.08-.35.23-1.2,2.81-2.4,5.61-3.61,8.41-.29.9-1.26,1.39-2.16,1.09-.06-.02-.12-.04-.17-.07-.63-.23-1.27-.45-1.91-.68h0c-.66-.25-1.13-.86-1.13-1.6Z" fill="currentColor"/>
<circle class="cls-1" cx="64.72" cy="36.76" fill="currentColor" r="3.4"/>
</g>
</svg>